{
	"asset":{
		"generator":"Khronos glTF Blender I/O v5.0.21",
		"version":"2.0"
	},
	"extensionsUsed":[
		"KHR_materials_emissive_strength"
	],
	"scene":0,
	"scenes":[
		{
			"name":"Scene",
			"nodes":[
				27
			]
		}
	],
	"nodes":[
		{
			"name":"Crest",
			"rotation":[
				-0.5461227297782898,
				0,
				0,
				0.8377051949501038
			],
			"scale":[
				1,
				0.9999999403953552,
				1
			],
			"translation":[
				0,
				0.2680716812610626,
				-0.11241713166236877
			]
		},
		{
			"children":[
				0
			],
			"name":"Head",
			"rotation":[
				-0.07160868495702744,
				0,
				0,
				0.9974328279495239
			],
			"scale":[
				1,
				1,
				0.9999998807907104
			],
			"translation":[
				0,
				0.13038410246372223,
				0
			]
		},
		{
			"children":[
				1
			],
			"name":"Neck",
			"rotation":[
				-0.0031846645288169384,
				0,
				0,
				0.9999949336051941
			],
			"translation":[
				0,
				0.12041593343019485,
				7.450580596923828e-09
			]
		},
		{
			"name":"Wing3_L",
			"rotation":[
				-0.020849527791142464,
				0.003703211434185505,
				-0.09957744926214218,
				0.9948045015335083
			],
			"scale":[
				1,
				0.9999999403953552,
				1
			],
			"translation":[
				5.448237061500549e-08,
				0.3432200253009796,
				5.6694261729717255e-08
			]
		},
		{
			"children":[
				3
			],
			"name":"Wing2_L",
			"rotation":[
				-0.005880816373974085,
				0.04039548709988594,
				-0.17231802642345428,
				0.9841951727867126
			],
			"scale":[
				0.9999999403953552,
				0.9999999403953552,
				1
			],
			"translation":[
				3.725290298461914e-08,
				0.3703376352787018,
				6.705522537231445e-08
			]
		},
		{
			"children":[
				4
			],
			"name":"Wing1_L",
			"rotation":[
				-0.7037456035614014,
				-0.4445500373840332,
				-0.4090450704097748,
				0.37389782071113586
			],
			"translation":[
				0.19499999284744263,
				-0.00041526113636791706,
				-0.004982729442417622
			]
		},
		{
			"name":"Wing3_R",
			"rotation":[
				-0.020849527791142464,
				-0.003703211434185505,
				0.09957744926214218,
				0.9948045015335083
			],
			"scale":[
				1,
				0.9999999403953552,
				1
			],
			"translation":[
				-5.448237061500549e-08,
				0.3432200253009796,
				5.6694261729717255e-08
			]
		},
		{
			"children":[
				6
			],
			"name":"Wing2_R",
			"rotation":[
				-0.005880816373974085,
				-0.04039548709988594,
				0.17231802642345428,
				0.9841951727867126
			],
			"scale":[
				0.9999999403953552,
				0.9999999403953552,
				1
			],
			"translation":[
				-3.725290298461914e-08,
				0.3703376352787018,
				6.705522537231445e-08
			]
		},
		{
			"children":[
				7
			],
			"name":"Wing1_R",
			"rotation":[
				-0.7037456035614014,
				0.4445500373840332,
				0.4090450704097748,
				0.37389782071113586
			],
			"translation":[
				-0.19499999284744263,
				-0.00041526113636791706,
				-0.004982729442417622
			]
		},
		{
			"children":[
				2,
				5,
				8
			],
			"name":"Chest",
			"rotation":[
				-0.001798567594960332,
				0,
				0,
				0.9999983906745911
			],
			"scale":[
				1,
				1.0000001192092896,
				0.9999999403953552
			],
			"translation":[
				0,
				0.23086786270141602,
				3.725290298461914e-09
			]
		},
		{
			"children":[
				9
			],
			"name":"Spine",
			"rotation":[
				-0.006465086247771978,
				0,
				0,
				0.9999791383743286
			],
			"scale":[
				1,
				0.9999999403953552,
				1
			],
			"translation":[
				0,
				0.20099759101867676,
				0
			]
		},
		{
			"name":"Tail",
			"rotation":[
				-0.8236139416694641,
				0,
				0,
				0.5671508312225342
			],
			"scale":[
				1,
				1,
				1.0000001192092896
			],
			"translation":[
				0,
				0.03681640326976776,
				-0.13433001935482025
			]
		},
		{
			"name":"Foot_L",
			"rotation":[
				-0.41641107201576233,
				0.011358139105141163,
				-0.005166410468518734,
				0.9090908765792847
			],
			"scale":[
				1,
				0.9999999403953552,
				0.9999999403953552
			],
			"translation":[
				-6.984919309616089e-10,
				0.5304241180419922,
				3.958120942115784e-09
			]
		},
		{
			"children":[
				12
			],
			"name":"Shin_L",
			"rotation":[
				0.17842234671115875,
				-0.0028022013138979673,
				-0.00016704745939932764,
				0.9839500188827515
			],
			"scale":[
				0.9999999403953552,
				1,
				1
			],
			"translation":[
				2.444721758365631e-09,
				0.30210262537002563,
				6.28642737865448e-09
			]
		},
		{
			"children":[
				13
			],
			"name":"Thigh_L",
			"rotation":[
				0.9874547719955444,
				-0.007835782133042812,
				-0.007091212086379528,
				0.15754817426204681
			],
			"scale":[
				0.9999999403953552,
				1.0000001192092896,
				1.0000046491622925
			],
			"translation":[
				0.1120000034570694,
				0.034826286137104034,
				-0.0034826211631298065
			]
		},
		{
			"name":"Foot_R",
			"rotation":[
				-0.41641107201576233,
				-0.011358139105141163,
				0.005166410468518734,
				0.9090908765792847
			],
			"scale":[
				1,
				0.9999999403953552,
				0.9999999403953552
			],
			"translation":[
				6.984919309616089e-10,
				0.5304241180419922,
				3.958120942115784e-09
			]
		},
		{
			"children":[
				15
			],
			"name":"Shin_R",
			"rotation":[
				0.17842234671115875,
				0.0028022013138979673,
				0.00016704745939932764,
				0.9839500188827515
			],
			"scale":[
				0.9999999403953552,
				1,
				1
			],
			"translation":[
				-2.444721758365631e-09,
				0.30210262537002563,
				6.28642737865448e-09
			]
		},
		{
			"children":[
				16
			],
			"name":"Thigh_R",
			"rotation":[
				0.9874547719955444,
				0.007835782133042812,
				0.007091212086379528,
				0.15754817426204681
			],
			"scale":[
				0.9999999403953552,
				1.0000001192092896,
				1.0000046491622925
			],
			"translation":[
				-0.1120000034570694,
				0.034826286137104034,
				-0.0034826211631298065
			]
		},
		{
			"children":[
				10,
				11,
				14,
				17
			],
			"name":"Hips",
			"rotation":[
				0.049813687801361084,
				0,
				0,
				0.9987584948539734
			],
			"translation":[
				0,
				1.0199999809265137,
				-0.019999999552965164
			]
		},
		{
			"children":[
				18
			],
			"name":"Root",
			"translation":[
				0,
				0.052390798926353455,
				0
			]
		},
		{
			"mesh":0,
			"name":"Body",
			"skin":0
		},
		{
			"mesh":1,
			"name":"Head",
			"skin":0
		},
		{
			"mesh":2,
			"name":"Leg_L",
			"skin":0
		},
		{
			"mesh":3,
			"name":"Leg_R",
			"skin":0
		},
		{
			"mesh":4,
			"name":"Tail",
			"skin":0
		},
		{
			"mesh":5,
			"name":"Wing_L",
			"skin":0
		},
		{
			"mesh":6,
			"name":"Wing_R",
			"skin":0
		},
		{
			"children":[
				20,
				21,
				22,
				23,
				24,
				25,
				26,
				19
			],
			"name":"AirBirdRig"
		}
	],
	"materials":[
		{
			"doubleSided":true,
			"name":"FeatherWhite",
			"pbrMetallicRoughness":{
				"baseColorFactor":[
					0.9300000071525574,
					0.9399999976158142,
					0.9599999785423279,
					1
				],
				"metallicFactor":0,
				"roughnessFactor":0.7200000286102295
			}
		},
		{
			"doubleSided":true,
			"name":"BodyGrey",
			"pbrMetallicRoughness":{
				"baseColorFactor":[
					0.800000011920929,
					0.8299999833106995,
					0.8799999952316284,
					1
				],
				"metallicFactor":0,
				"roughnessFactor":0.7799999713897705
			}
		},
		{
			"doubleSided":true,
			"name":"AccentBlue",
			"pbrMetallicRoughness":{
				"baseColorFactor":[
					0.12999999523162842,
					0.33000001311302185,
					0.7200000286102295,
					1
				],
				"metallicFactor":0,
				"roughnessFactor":0.550000011920929
			}
		},
		{
			"doubleSided":true,
			"name":"FeatherDark",
			"pbrMetallicRoughness":{
				"baseColorFactor":[
					0.041999999433755875,
					0.04399999976158142,
					0.06199999898672104,
					1
				],
				"metallicFactor":0,
				"roughnessFactor":0.5799999833106995
			}
		},
		{
			"doubleSided":true,
			"name":"BeakPale",
			"pbrMetallicRoughness":{
				"baseColorFactor":[
					0.9350000023841858,
					0.8700000047683716,
					0.6850000023841858,
					1
				],
				"metallicFactor":0,
				"roughnessFactor":0.44999998807907104
			}
		},
		{
			"doubleSided":true,
			"name":"EyeWhite",
			"pbrMetallicRoughness":{
				"baseColorFactor":[
					0.9850000143051147,
					0.9850000143051147,
					0.9900000095367432,
					1
				],
				"metallicFactor":0,
				"roughnessFactor":0.30000001192092896
			}
		},
		{
			"doubleSided":true,
			"emissiveFactor":[
				1,
				0.15789474509759632,
				0.12631578823536055
			],
			"extensions":{
				"KHR_materials_emissive_strength":{
					"emissiveStrength":1.3299999606609347
				}
			},
			"name":"EyeRed",
			"pbrMetallicRoughness":{
				"baseColorFactor":[
					0.800000011920929,
					0.10999999940395355,
					0.10999999940395355,
					1
				],
				"metallicFactor":0,
				"roughnessFactor":0.30000001192092896
			}
		},
		{
			"doubleSided":true,
			"name":"LegSkin",
			"pbrMetallicRoughness":{
				"baseColorFactor":[
					0.8999999761581421,
					0.5600000023841858,
					0.15000000596046448,
					1
				],
				"metallicFactor":0,
				"roughnessFactor":0.550000011920929
			}
		},
		{
			"doubleSided":true,
			"name":"Claw",
			"pbrMetallicRoughness":{
				"baseColorFactor":[
					0.09000000357627869,
					0.09000000357627869,
					0.11999999731779099,
					1
				],
				"metallicFactor":0,
				"roughnessFactor":0.3499999940395355
			}
		}
	],
	"meshes":[
		{
			"name":"Body",
			"primitives":[
				{
					"attributes":{
						"POSITION":0,
						"NORMAL":1,
						"JOINTS_0":2,
						"WEIGHTS_0":3
					},
					"indices":4,
					"material":0
				},
				{
					"attributes":{
						"POSITION":5,
						"NORMAL":6,
						"JOINTS_0":7,
						"WEIGHTS_0":8
					},
					"indices":9,
					"material":1
				},
				{
					"attributes":{
						"POSITION":10,
						"NORMAL":11,
						"JOINTS_0":12,
						"WEIGHTS_0":13
					},
					"indices":14,
					"material":2
				}
			]
		},
		{
			"name":"Head",
			"primitives":[
				{
					"attributes":{
						"POSITION":16,
						"NORMAL":17,
						"JOINTS_0":18,
						"WEIGHTS_0":19
					},
					"indices":20,
					"material":3
				},
				{
					"attributes":{
						"POSITION":21,
						"NORMAL":22,
						"JOINTS_0":23,
						"WEIGHTS_0":24
					},
					"indices":25,
					"material":4
				},
				{
					"attributes":{
						"POSITION":26,
						"NORMAL":27,
						"JOINTS_0":28,
						"WEIGHTS_0":29
					},
					"indices":30,
					"material":5
				},
				{
					"attributes":{
						"POSITION":31,
						"NORMAL":32,
						"JOINTS_0":33,
						"WEIGHTS_0":34
					},
					"indices":35,
					"material":6
				}
			]
		},
		{
			"name":"Leg_L",
			"primitives":[
				{
					"attributes":{
						"POSITION":36,
						"NORMAL":37,
						"JOINTS_0":38,
						"WEIGHTS_0":39
					},
					"indices":40,
					"material":3
				},
				{
					"attributes":{
						"POSITION":41,
						"NORMAL":42,
						"JOINTS_0":43,
						"WEIGHTS_0":44
					},
					"indices":45,
					"material":7
				},
				{
					"attributes":{
						"POSITION":46,
						"NORMAL":47,
						"JOINTS_0":48,
						"WEIGHTS_0":49
					},
					"indices":50,
					"material":8
				}
			]
		},
		{
			"name":"Leg_R",
			"primitives":[
				{
					"attributes":{
						"POSITION":51,
						"NORMAL":52,
						"JOINTS_0":53,
						"WEIGHTS_0":54
					},
					"indices":55,
					"material":3
				},
				{
					"attributes":{
						"POSITION":56,
						"NORMAL":57,
						"JOINTS_0":58,
						"WEIGHTS_0":59
					},
					"indices":60,
					"material":7
				},
				{
					"attributes":{
						"POSITION":61,
						"NORMAL":62,
						"JOINTS_0":63,
						"WEIGHTS_0":64
					},
					"indices":50,
					"material":8
				}
			]
		},
		{
			"name":"Tail",
			"primitives":[
				{
					"attributes":{
						"POSITION":65,
						"NORMAL":66,
						"JOINTS_0":67,
						"WEIGHTS_0":68
					},
					"indices":69,
					"material":0
				},
				{
					"attributes":{
						"POSITION":70,
						"NORMAL":71,
						"JOINTS_0":72,
						"WEIGHTS_0":73
					},
					"indices":74,
					"material":3
				}
			]
		},
		{
			"name":"Wing_L",
			"primitives":[
				{
					"attributes":{
						"POSITION":75,
						"NORMAL":76,
						"JOINTS_0":77,
						"WEIGHTS_0":78
					},
					"indices":79,
					"material":0
				},
				{
					"attributes":{
						"POSITION":80,
						"NORMAL":81,
						"JOINTS_0":82,
						"WEIGHTS_0":83
					},
					"indices":84,
					"material":3
				},
				{
					"attributes":{
						"POSITION":85,
						"NORMAL":86,
						"JOINTS_0":87,
						"WEIGHTS_0":88
					},
					"indices":89,
					"material":1
				}
			]
		},
		{
			"name":"Wing_R",
			"primitives":[
				{
					"attributes":{
						"POSITION":90,
						"NORMAL":91,
						"JOINTS_0":92,
						"WEIGHTS_0":93
					},
					"indices":94,
					"material":0
				},
				{
					"attributes":{
						"POSITION":95,
						"NORMAL":96,
						"JOINTS_0":97,
						"WEIGHTS_0":98
					},
					"indices":99,
					"material":3
				},
				{
					"attributes":{
						"POSITION":100,
						"NORMAL":101,
						"JOINTS_0":102,
						"WEIGHTS_0":103
					},
					"indices":104,
					"material":1
				}
			]
		}
	],
	"skins":[
		{
			"inverseBindMatrices":15,
			"joints":[
				19,
				18,
				10,
				9,
				2,
				1,
				0,
				5,
				4,
				3,
				8,
				7,
				6,
				11,
				14,
				13,
				12,
				17,
				16,
				15
			],
			"name":"AirBirdRig"
		}
	],
	"accessors":[
		{
			"bufferView":0,
			"componentType":5126,
			"count":928,
			"max":[
				0.1680772602558136,
				1.7523908615112305,
				0.23257531225681305
			],
			"min":[
				-0.1680772602558136,
				1.0140446424484253,
				-0.15159398317337036
			],
			"type":"VEC3"
		},
		{
			"bufferView":1,
			"componentType":5126,
			"count":928,
			"type":"VEC3"
		},
		{
			"bufferView":2,
			"componentType":5121,
			"count":928,
			"type":"VEC4"
		},
		{
			"bufferView":3,
			"componentType":5126,
			"count":928,
			"type":"VEC4"
		},
		{
			"bufferView":4,
			"componentType":5123,
			"count":1284,
			"type":"SCALAR"
		},
		{
			"bufferView":5,
			"componentType":5126,
			"count":176,
			"max":[
				0.22635048627853394,
				1.6123907566070557,
				0.238644540309906
			],
			"min":[
				-0.22635048627853394,
				1.0123907327651978,
				-0.18439529836177826
			],
			"type":"VEC3"
		},
		{
			"bufferView":6,
			"componentType":5126,
			"count":176,
			"type":"VEC3"
		},
		{
			"bufferView":7,
			"componentType":5121,
			"count":176,
			"type":"VEC4"
		},
		{
			"bufferView":8,
			"componentType":5126,
			"count":176,
			"type":"VEC4"
		},
		{
			"bufferView":9,
			"componentType":5123,
			"count":276,
			"type":"SCALAR"
		},
		{
			"bufferView":10,
			"componentType":5126,
			"count":144,
			"max":[
				0.11821576952934265,
				1.5791019201278687,
				0.20678307116031647
			],
			"min":[
				-0.11821576952934265,
				1.4463409185409546,
				0.10438776761293411
			],
			"type":"VEC3"
		},
		{
			"bufferView":11,
			"componentType":5126,
			"count":144,
			"type":"VEC3"
		},
		{
			"bufferView":12,
			"componentType":5121,
			"count":144,
			"type":"VEC4"
		},
		{
			"bufferView":13,
			"componentType":5126,
			"count":144,
			"type":"VEC4"
		},
		{
			"bufferView":14,
			"componentType":5123,
			"count":198,
			"type":"SCALAR"
		},
		{
			"bufferView":15,
			"componentType":5126,
			"count":20,
			"type":"MAT4"
		},
		{
			"bufferView":16,
			"componentType":5126,
			"count":592,
			"max":[
				0.33391109108924866,
				2.5014426708221436,
				0.2086021453142166
			],
			"min":[
				-0.33391109108924866,
				1.7683907747268677,
				-0.5765767693519592
			],
			"type":"VEC3"
		},
		{
			"bufferView":17,
			"componentType":5126,
			"count":592,
			"type":"VEC3"
		},
		{
			"bufferView":18,
			"componentType":5121,
			"count":592,
			"type":"VEC4"
		},
		{
			"bufferView":19,
			"componentType":5126,
			"count":592,
			"type":"VEC4"
		},
		{
			"bufferView":20,
			"componentType":5123,
			"count":822,
			"type":"SCALAR"
		},
		{
			"bufferView":21,
			"componentType":5126,
			"count":192,
			"max":[
				0.05999999865889549,
				1.9603908061981201,
				0.4320000112056732
			],
			"min":[
				-0.05999999865889549,
				1.7923908233642578,
				0.15000000596046448
			],
			"type":"VEC3"
		},
		{
			"bufferView":22,
			"componentType":5126,
			"count":192,
			"type":"VEC3"
		},
		{
			"bufferView":23,
			"componentType":5121,
			"count":192,
			"type":"VEC4"
		},
		{
			"bufferView":24,
			"componentType":5126,
			"count":192,
			"type":"VEC4"
		},
		{
			"bufferView":25,
			"componentType":5123,
			"count":276,
			"type":"SCALAR"
		},
		{
			"bufferView":26,
			"componentType":5126,
			"count":72,
			"max":[
				0.15517108142375946,
				1.9713534116744995,
				0.23237597942352295
			],
			"min":[
				-0.15517108142375946,
				1.884002923965454,
				0.16101114451885223
			],
			"type":"VEC3"
		},
		{
			"bufferView":27,
			"componentType":5126,
			"count":72,
			"type":"VEC3"
		},
		{
			"bufferView":28,
			"componentType":5121,
			"count":72,
			"type":"VEC4"
		},
		{
			"bufferView":29,
			"componentType":5126,
			"count":72,
			"type":"VEC4"
		},
		{
			"bufferView":30,
			"componentType":5123,
			"count":120,
			"type":"SCALAR"
		},
		{
			"bufferView":31,
			"componentType":5126,
			"count":72,
			"max":[
				0.11215390264987946,
				1.9457730054855347,
				0.21527309715747833
			],
			"min":[
				-0.11215390264987946,
				1.906744122505188,
				0.19377851486206055
			],
			"type":"VEC3"
		},
		{
			"bufferView":32,
			"componentType":5126,
			"count":72,
			"type":"VEC3"
		},
		{
			"bufferView":33,
			"componentType":5121,
			"count":72,
			"type":"VEC4"
		},
		{
			"bufferView":34,
			"componentType":5126,
			"count":72,
			"type":"VEC4"
		},
		{
			"bufferView":35,
			"componentType":5123,
			"count":120,
			"type":"SCALAR"
		},
		{
			"bufferView":36,
			"componentType":5126,
			"count":324,
			"max":[
				0.3301771581172943,
				1.1298315525054932,
				0.19375383853912354
			],
			"min":[
				-0.10617716610431671,
				0.7831080555915833,
				-0.23375383019447327
			],
			"type":"VEC3"
		},
		{
			"bufferView":37,
			"componentType":5126,
			"count":324,
			"type":"VEC3"
		},
		{
			"bufferView":38,
			"componentType":5121,
			"count":324,
			"type":"VEC4"
		},
		{
			"bufferView":39,
			"componentType":5126,
			"count":324,
			"type":"VEC4"
		},
		{
			"bufferView":40,
			"componentType":5123,
			"count":456,
			"type":"SCALAR"
		},
		{
			"bufferView":41,
			"componentType":5126,
			"count":192,
			"max":[
				0.1937049925327301,
				0.8180478811264038,
				0.24007299542427063
			],
			"min":[
				0.0030013537034392357,
				0.044844500720500946,
				-0.13651734590530396
			],
			"type":"VEC3"
		},
		{
			"bufferView":42,
			"componentType":5126,
			"count":192,
			"type":"VEC3"
		},
		{
			"bufferView":43,
			"componentType":5121,
			"count":192,
			"type":"VEC4"
		},
		{
			"bufferView":44,
			"componentType":5126,
			"count":192,
			"type":"VEC4"
		},
		{
			"bufferView":45,
			"componentType":5123,
			"count":312,
			"type":"SCALAR"
		},
		{
			"bufferView":46,
			"componentType":5126,
			"count":96,
			"max":[
				0.19397249817848206,
				0.09051474928855896,
				0.28468218445777893
			],
			"min":[
				0.0013558214996010065,
				0,
				-0.18112650513648987
			],
			"type":"VEC3"
		},
		{
			"bufferView":47,
			"componentType":5126,
			"count":96,
			"type":"VEC3"
		},
		{
			"bufferView":48,
			"componentType":5121,
			"count":96,
			"type":"VEC4"
		},
		{
			"bufferView":49,
			"componentType":5126,
			"count":96,
			"type":"VEC4"
		},
		{
			"bufferView":50,
			"componentType":5123,
			"count":144,
			"type":"SCALAR"
		},
		{
			"bufferView":51,
			"componentType":5126,
			"count":324,
			"max":[
				0.10617716610431671,
				1.1298315525054932,
				0.19375383853912354
			],
			"min":[
				-0.3301771581172943,
				0.7831080555915833,
				-0.23375383019447327
			],
			"type":"VEC3"
		},
		{
			"bufferView":52,
			"componentType":5126,
			"count":324,
			"type":"VEC3"
		},
		{
			"bufferView":53,
			"componentType":5121,
			"count":324,
			"type":"VEC4"
		},
		{
			"bufferView":54,
			"componentType":5126,
			"count":324,
			"type":"VEC4"
		},
		{
			"bufferView":55,
			"componentType":5123,
			"count":456,
			"type":"SCALAR"
		},
		{
			"bufferView":56,
			"componentType":5126,
			"count":192,
			"max":[
				-0.0022949990816414356,
				0.8180478811264038,
				0.24007299542427063
			],
			"min":[
				-0.19299863278865814,
				0.044844500720500946,
				-0.13651734590530396
			],
			"type":"VEC3"
		},
		{
			"bufferView":57,
			"componentType":5126,
			"count":192,
			"type":"VEC3"
		},
		{
			"bufferView":58,
			"componentType":5121,
			"count":192,
			"type":"VEC4"
		},
		{
			"bufferView":59,
			"componentType":5126,
			"count":192,
			"type":"VEC4"
		},
		{
			"bufferView":60,
			"componentType":5123,
			"count":312,
			"type":"SCALAR"
		},
		{
			"bufferView":61,
			"componentType":5126,
			"count":96,
			"max":[
				-0.0020275015849620104,
				0.09051474928855896,
				0.28468218445777893
			],
			"min":[
				-0.19464416801929474,
				0,
				-0.18112650513648987
			],
			"type":"VEC3"
		},
		{
			"bufferView":62,
			"componentType":5126,
			"count":96,
			"type":"VEC3"
		},
		{
			"bufferView":63,
			"componentType":5121,
			"count":96,
			"type":"VEC4"
		},
		{
			"bufferView":64,
			"componentType":5126,
			"count":96,
			"type":"VEC4"
		},
		{
			"bufferView":65,
			"componentType":5126,
			"count":396,
			"max":[
				0.30640965700149536,
				1.2388402223587036,
				-0.1377483755350113
			],
			"min":[
				-0.30640965700149536,
				0.958726167678833,
				-0.8588325381278992
			],
			"type":"VEC3"
		},
		{
			"bufferView":66,
			"componentType":5126,
			"count":396,
			"type":"VEC3"
		},
		{
			"bufferView":67,
			"componentType":5121,
			"count":396,
			"type":"VEC4"
		},
		{
			"bufferView":68,
			"componentType":5126,
			"count":396,
			"type":"VEC4"
		},
		{
			"bufferView":69,
			"componentType":5123,
			"count":576,
			"type":"SCALAR"
		},
		{
			"bufferView":70,
			"componentType":5126,
			"count":84,
			"max":[
				0.3503328561782837,
				1.0349836349487305,
				-0.47255629301071167
			],
			"min":[
				-0.3503328561782837,
				0.9319074153900146,
				-1.1468298435211182
			],
			"type":"VEC3"
		},
		{
			"bufferView":71,
			"componentType":5126,
			"count":84,
			"type":"VEC3"
		},
		{
			"bufferView":72,
			"componentType":5121,
			"count":84,
			"type":"VEC4"
		},
		{
			"bufferView":73,
			"componentType":5126,
			"count":84,
			"type":"VEC4"
		},
		{
			"bufferView":74,
			"componentType":5123,
			"count":84,
			"type":"SCALAR"
		},
		{
			"bufferView":75,
			"componentType":5126,
			"count":2664,
			"max":[
				1.394417405128479,
				1.6200238466262817,
				0.11636646091938019
			],
			"min":[
				0.15240755677223206,
				1.0329418182373047,
				-0.537970244884491
			],
			"type":"VEC3"
		},
		{
			"bufferView":76,
			"componentType":5126,
			"count":2664,
			"type":"VEC3"
		},
		{
			"bufferView":77,
			"componentType":5121,
			"count":2664,
			"type":"VEC4"
		},
		{
			"bufferView":78,
			"componentType":5126,
			"count":2664,
			"type":"VEC4"
		},
		{
			"bufferView":79,
			"componentType":5123,
			"count":3780,
			"type":"SCALAR"
		},
		{
			"bufferView":80,
			"componentType":5126,
			"count":312,
			"max":[
				1.524037480354309,
				1.3565597534179688,
				-0.012945065274834633
			],
			"min":[
				0.5117471814155579,
				0.9865069389343262,
				-0.679844856262207
			],
			"type":"VEC3"
		},
		{
			"bufferView":81,
			"componentType":5126,
			"count":312,
			"type":"VEC3"
		},
		{
			"bufferView":82,
			"componentType":5121,
			"count":312,
			"type":"VEC4"
		},
		{
			"bufferView":83,
			"componentType":5126,
			"count":312,
			"type":"VEC4"
		},
		{
			"bufferView":84,
			"componentType":5123,
			"count":312,
			"type":"SCALAR"
		},
		{
			"bufferView":85,
			"componentType":5126,
			"count":72,
			"max":[
				0.8741462826728821,
				1.5947492122650146,
				0.1014164462685585
			],
			"min":[
				0.1628876030445099,
				1.2919646501541138,
				-0.112462617456913
			],
			"type":"VEC3"
		},
		{
			"bufferView":86,
			"componentType":5126,
			"count":72,
			"type":"VEC3"
		},
		{
			"bufferView":87,
			"componentType":5121,
			"count":72,
			"type":"VEC4"
		},
		{
			"bufferView":88,
			"componentType":5126,
			"count":72,
			"type":"VEC4"
		},
		{
			"bufferView":89,
			"componentType":5123,
			"count":120,
			"type":"SCALAR"
		},
		{
			"bufferView":90,
			"componentType":5126,
			"count":2664,
			"max":[
				-0.15240755677223206,
				1.6200238466262817,
				0.11636646091938019
			],
			"min":[
				-1.394417405128479,
				1.0329418182373047,
				-0.537970244884491
			],
			"type":"VEC3"
		},
		{
			"bufferView":91,
			"componentType":5126,
			"count":2664,
			"type":"VEC3"
		},
		{
			"bufferView":92,
			"componentType":5121,
			"count":2664,
			"type":"VEC4"
		},
		{
			"bufferView":93,
			"componentType":5126,
			"count":2664,
			"type":"VEC4"
		},
		{
			"bufferView":94,
			"componentType":5123,
			"count":3780,
			"type":"SCALAR"
		},
		{
			"bufferView":95,
			"componentType":5126,
			"count":312,
			"max":[
				-0.5117471814155579,
				1.3565597534179688,
				-0.012945065274834633
			],
			"min":[
				-1.524037480354309,
				0.9865069389343262,
				-0.679844856262207
			],
			"type":"VEC3"
		},
		{
			"bufferView":96,
			"componentType":5126,
			"count":312,
			"type":"VEC3"
		},
		{
			"bufferView":97,
			"componentType":5121,
			"count":312,
			"type":"VEC4"
		},
		{
			"bufferView":98,
			"componentType":5126,
			"count":312,
			"type":"VEC4"
		},
		{
			"bufferView":99,
			"componentType":5123,
			"count":312,
			"type":"SCALAR"
		},
		{
			"bufferView":100,
			"componentType":5126,
			"count":72,
			"max":[
				-0.1613842397928238,
				1.5947492122650146,
				0.1060478612780571
			],
			"min":[
				-0.8739686012268066,
				1.2919646501541138,
				-0.11260171234607697
			],
			"type":"VEC3"
		},
		{
			"bufferView":101,
			"componentType":5126,
			"count":72,
			"type":"VEC3"
		},
		{
			"bufferView":102,
			"componentType":5121,
			"count":72,
			"type":"VEC4"
		},
		{
			"bufferView":103,
			"componentType":5126,
			"count":72,
			"type":"VEC4"
		},
		{
			"bufferView":104,
			"componentType":5123,
			"count":120,
			"type":"SCALAR"
		}
	],
	"bufferViews":[
		{
			"buffer":0,
			"byteLength":11136,
			"byteOffset":0,
			"target":34962
		},
		{
			"buffer":0,
			"byteLength":11136,
			"byteOffset":11136,
			"target":34962
		},
		{
			"buffer":0,
			"byteLength":3712,
			"byteOffset":22272,
			"target":34962
		},
		{
			"buffer":0,
			"byteLength":14848,
			"byteOffset":25984,
			"target":34962
		},
		{
			"buffer":0,
			"byteLength":2568,
			"byteOffset":40832,
			"target":34963
		},
		{
			"buffer":0,
			"byteLength":2112,
			"byteOffset":43400,
			"target":34962
		},
		{
			"buffer":0,
			"byteLength":2112,
			"byteOffset":45512,
			"target":34962
		},
		{
			"buffer":0,
			"byteLength":704,
			"byteOffset":47624,
			"target":34962
		},
		{
			"buffer":0,
			"byteLength":2816,
			"byteOffset":48328,
			"target":34962
		},
		{
			"buffer":0,
			"byteLength":552,
			"byteOffset":51144,
			"target":34963
		},
		{
			"buffer":0,
			"byteLength":1728,
			"byteOffset":51696,
			"target":34962
		},
		{
			"buffer":0,
			"byteLength":1728,
			"byteOffset":53424,
			"target":34962
		},
		{
			"buffer":0,
			"byteLength":576,
			"byteOffset":55152,
			"target":34962
		},
		{
			"buffer":0,
			"byteLength":2304,
			"byteOffset":55728,
			"target":34962
		},
		{
			"buffer":0,
			"byteLength":396,
			"byteOffset":58032,
			"target":34963
		},
		{
			"buffer":0,
			"byteLength":1280,
			"byteOffset":58428
		},
		{
			"buffer":0,
			"byteLength":7104,
			"byteOffset":59708,
			"target":34962
		},
		{
			"buffer":0,
			"byteLength":7104,
			"byteOffset":66812,
			"target":34962
		},
		{
			"buffer":0,
			"byteLength":2368,
			"byteOffset":73916,
			"target":34962
		},
		{
			"buffer":0,
			"byteLength":9472,
			"byteOffset":76284,
			"target":34962
		},
		{
			"buffer":0,
			"byteLength":1644,
			"byteOffset":85756,
			"target":34963
		},
		{
			"buffer":0,
			"byteLength":2304,
			"byteOffset":87400,
			"target":34962
		},
		{
			"buffer":0,
			"byteLength":2304,
			"byteOffset":89704,
			"target":34962
		},
		{
			"buffer":0,
			"byteLength":768,
			"byteOffset":92008,
			"target":34962
		},
		{
			"buffer":0,
			"byteLength":3072,
			"byteOffset":92776,
			"target":34962
		},
		{
			"buffer":0,
			"byteLength":552,
			"byteOffset":95848,
			"target":34963
		},
		{
			"buffer":0,
			"byteLength":864,
			"byteOffset":96400,
			"target":34962
		},
		{
			"buffer":0,
			"byteLength":864,
			"byteOffset":97264,
			"target":34962
		},
		{
			"buffer":0,
			"byteLength":288,
			"byteOffset":98128,
			"target":34962
		},
		{
			"buffer":0,
			"byteLength":1152,
			"byteOffset":98416,
			"target":34962
		},
		{
			"buffer":0,
			"byteLength":240,
			"byteOffset":99568,
			"target":34963
		},
		{
			"buffer":0,
			"byteLength":864,
			"byteOffset":99808,
			"target":34962
		},
		{
			"buffer":0,
			"byteLength":864,
			"byteOffset":100672,
			"target":34962
		},
		{
			"buffer":0,
			"byteLength":288,
			"byteOffset":101536,
			"target":34962
		},
		{
			"buffer":0,
			"byteLength":1152,
			"byteOffset":101824,
			"target":34962
		},
		{
			"buffer":0,
			"byteLength":240,
			"byteOffset":102976,
			"target":34963
		},
		{
			"buffer":0,
			"byteLength":3888,
			"byteOffset":103216,
			"target":34962
		},
		{
			"buffer":0,
			"byteLength":3888,
			"byteOffset":107104,
			"target":34962
		},
		{
			"buffer":0,
			"byteLength":1296,
			"byteOffset":110992,
			"target":34962
		},
		{
			"buffer":0,
			"byteLength":5184,
			"byteOffset":112288,
			"target":34962
		},
		{
			"buffer":0,
			"byteLength":912,
			"byteOffset":117472,
			"target":34963
		},
		{
			"buffer":0,
			"byteLength":2304,
			"byteOffset":118384,
			"target":34962
		},
		{
			"buffer":0,
			"byteLength":2304,
			"byteOffset":120688,
			"target":34962
		},
		{
			"buffer":0,
			"byteLength":768,
			"byteOffset":122992,
			"target":34962
		},
		{
			"buffer":0,
			"byteLength":3072,
			"byteOffset":123760,
			"target":34962
		},
		{
			"buffer":0,
			"byteLength":624,
			"byteOffset":126832,
			"target":34963
		},
		{
			"buffer":0,
			"byteLength":1152,
			"byteOffset":127456,
			"target":34962
		},
		{
			"buffer":0,
			"byteLength":1152,
			"byteOffset":128608,
			"target":34962
		},
		{
			"buffer":0,
			"byteLength":384,
			"byteOffset":129760,
			"target":34962
		},
		{
			"buffer":0,
			"byteLength":1536,
			"byteOffset":130144,
			"target":34962
		},
		{
			"buffer":0,
			"byteLength":288,
			"byteOffset":131680,
			"target":34963
		},
		{
			"buffer":0,
			"byteLength":3888,
			"byteOffset":131968,
			"target":34962
		},
		{
			"buffer":0,
			"byteLength":3888,
			"byteOffset":135856,
			"target":34962
		},
		{
			"buffer":0,
			"byteLength":1296,
			"byteOffset":139744,
			"target":34962
		},
		{
			"buffer":0,
			"byteLength":5184,
			"byteOffset":141040,
			"target":34962
		},
		{
			"buffer":0,
			"byteLength":912,
			"byteOffset":146224,
			"target":34963
		},
		{
			"buffer":0,
			"byteLength":2304,
			"byteOffset":147136,
			"target":34962
		},
		{
			"buffer":0,
			"byteLength":2304,
			"byteOffset":149440,
			"target":34962
		},
		{
			"buffer":0,
			"byteLength":768,
			"byteOffset":151744,
			"target":34962
		},
		{
			"buffer":0,
			"byteLength":3072,
			"byteOffset":152512,
			"target":34962
		},
		{
			"buffer":0,
			"byteLength":624,
			"byteOffset":155584,
			"target":34963
		},
		{
			"buffer":0,
			"byteLength":1152,
			"byteOffset":156208,
			"target":34962
		},
		{
			"buffer":0,
			"byteLength":1152,
			"byteOffset":157360,
			"target":34962
		},
		{
			"buffer":0,
			"byteLength":384,
			"byteOffset":158512,
			"target":34962
		},
		{
			"buffer":0,
			"byteLength":1536,
			"byteOffset":158896,
			"target":34962
		},
		{
			"buffer":0,
			"byteLength":4752,
			"byteOffset":160432,
			"target":34962
		},
		{
			"buffer":0,
			"byteLength":4752,
			"byteOffset":165184,
			"target":34962
		},
		{
			"buffer":0,
			"byteLength":1584,
			"byteOffset":169936,
			"target":34962
		},
		{
			"buffer":0,
			"byteLength":6336,
			"byteOffset":171520,
			"target":34962
		},
		{
			"buffer":0,
			"byteLength":1152,
			"byteOffset":177856,
			"target":34963
		},
		{
			"buffer":0,
			"byteLength":1008,
			"byteOffset":179008,
			"target":34962
		},
		{
			"buffer":0,
			"byteLength":1008,
			"byteOffset":180016,
			"target":34962
		},
		{
			"buffer":0,
			"byteLength":336,
			"byteOffset":181024,
			"target":34962
		},
		{
			"buffer":0,
			"byteLength":1344,
			"byteOffset":181360,
			"target":34962
		},
		{
			"buffer":0,
			"byteLength":168,
			"byteOffset":182704,
			"target":34963
		},
		{
			"buffer":0,
			"byteLength":31968,
			"byteOffset":182872,
			"target":34962
		},
		{
			"buffer":0,
			"byteLength":31968,
			"byteOffset":214840,
			"target":34962
		},
		{
			"buffer":0,
			"byteLength":10656,
			"byteOffset":246808,
			"target":34962
		},
		{
			"buffer":0,
			"byteLength":42624,
			"byteOffset":257464,
			"target":34962
		},
		{
			"buffer":0,
			"byteLength":7560,
			"byteOffset":300088,
			"target":34963
		},
		{
			"buffer":0,
			"byteLength":3744,
			"byteOffset":307648,
			"target":34962
		},
		{
			"buffer":0,
			"byteLength":3744,
			"byteOffset":311392,
			"target":34962
		},
		{
			"buffer":0,
			"byteLength":1248,
			"byteOffset":315136,
			"target":34962
		},
		{
			"buffer":0,
			"byteLength":4992,
			"byteOffset":316384,
			"target":34962
		},
		{
			"buffer":0,
			"byteLength":624,
			"byteOffset":321376,
			"target":34963
		},
		{
			"buffer":0,
			"byteLength":864,
			"byteOffset":322000,
			"target":34962
		},
		{
			"buffer":0,
			"byteLength":864,
			"byteOffset":322864,
			"target":34962
		},
		{
			"buffer":0,
			"byteLength":288,
			"byteOffset":323728,
			"target":34962
		},
		{
			"buffer":0,
			"byteLength":1152,
			"byteOffset":324016,
			"target":34962
		},
		{
			"buffer":0,
			"byteLength":240,
			"byteOffset":325168,
			"target":34963
		},
		{
			"buffer":0,
			"byteLength":31968,
			"byteOffset":325408,
			"target":34962
		},
		{
			"buffer":0,
			"byteLength":31968,
			"byteOffset":357376,
			"target":34962
		},
		{
			"buffer":0,
			"byteLength":10656,
			"byteOffset":389344,
			"target":34962
		},
		{
			"buffer":0,
			"byteLength":42624,
			"byteOffset":400000,
			"target":34962
		},
		{
			"buffer":0,
			"byteLength":7560,
			"byteOffset":442624,
			"target":34963
		},
		{
			"buffer":0,
			"byteLength":3744,
			"byteOffset":450184,
			"target":34962
		},
		{
			"buffer":0,
			"byteLength":3744,
			"byteOffset":453928,
			"target":34962
		},
		{
			"buffer":0,
			"byteLength":1248,
			"byteOffset":457672,
			"target":34962
		},
		{
			"buffer":0,
			"byteLength":4992,
			"byteOffset":458920,
			"target":34962
		},
		{
			"buffer":0,
			"byteLength":624,
			"byteOffset":463912,
			"target":34963
		},
		{
			"buffer":0,
			"byteLength":864,
			"byteOffset":464536,
			"target":34962
		},
		{
			"buffer":0,
			"byteLength":864,
			"byteOffset":465400,
			"target":34962
		},
		{
			"buffer":0,
			"byteLength":288,
			"byteOffset":466264,
			"target":34962
		},
		{
			"buffer":0,
			"byteLength":1152,
			"byteOffset":466552,
			"target":34962
		},
		{
			"buffer":0,
			"byteLength":240,
			"byteOffset":467704,
			"target":34963
		}
	],
	"buffers":[
		{
			"byteLength":467944,
			"uri":"air_bird-38f3fbbf309f87c18660dd9a23c3908d.bin"
		}
	]
}
